<svg width="782" height="416" viewBox="0 0 782 416" fill="none" xmlns="http://www.w3.org/2000/svg">
<path d="M-5.94414e-07 120.213C20.8652 94.7429 56.1651 83.901 87.8928 94.453C87.1647 81.4996 89.7945 68.5777 95.5273 56.9392C114.247 18.4508 161.049 1.13883 200.059 18.2782C212.586 23.6736 223.366 32.4467 231.194 43.6168C239.021 54.7868 243.588 67.9137 244.384 81.5302C249.085 79.0527 254.13 77.2893 259.351 76.2981C272.119 73.8125 285.355 76.2849 296.365 83.2124C296.483 46.6761 323.628 13.7198 361.893 6.4721C402.143 -1.15104 440.323 22.4384 450.454 59.7835C460.85 51.5028 473.111 45.8868 486.172 43.4238C497.891 41.1111 509.985 41.5209 521.521 44.6215C533.056 47.7222 543.726 53.431 552.706 61.3076C555.524 61.1165 558.352 61.1147 561.17 61.3021C560.324 41.6835 574.528 21.302 595.57 12.7645C597.488 11.9892 599.449 11.3232 601.442 10.7696C621.162 5.32919 643.87 9.88807 662.761 22.9755C669.117 14.6957 677.59 8.28473 687.286 4.41874L688.685 3.87379C716.447 -6.61425 746.524 4.93074 755.736 29.617C760.46 42.2956 758.909 56.7195 751.463 69.2097C750.206 72.2919 748.226 75.0268 745.69 77.1838C742.375 80.9573 738.579 84.2791 734.399 87.0639C740.684 99.1925 736.651 116.98 724.169 130.631C718.869 136.494 712.336 141.111 705.039 144.15C693.285 148.918 681.744 148.073 673.925 141.906C671.106 147.834 667.332 153.258 662.755 157.963L781.128 205.609L165.01 415.995L136.552 350.773C125.619 350.822 114.799 348.578 104.787 344.187C102.8 343.309 100.884 342.344 99.0156 341.337C100.874 345.766 102.064 350.446 102.544 355.225L-5.94414e-07 120.213Z" fill="white"/>
</svg>
