<svg width="725" height="430" viewBox="0 0 725 430" fill="none" xmlns="http://www.w3.org/2000/svg">
<path d="M-4 38.9022C25.31 23.9022 62 28.0822 86.86 50.4422C91.373 38.2787 98.9511 27.4868 108.86 19.1122C141.41 -8.67778 191.23 -5.82778 220.13 25.4822C229.454 35.4373 235.826 47.7894 238.533 61.1577C241.24 74.526 240.176 88.3839 235.46 101.182C240.76 100.792 246.088 101.193 251.27 102.372C263.967 105.2 275.109 112.76 282.43 123.512C297.15 90.0723 335.21 70.7222 373.18 79.3822C413.12 88.4922 438.68 125.382 433.03 163.662C445.87 160.23 459.354 159.986 472.31 162.952C483.976 165.519 494.897 170.731 504.23 178.187C513.563 185.642 521.059 195.141 526.14 205.952C528.799 206.904 531.392 208.033 533.9 209.332C540.97 191.012 562.14 178.012 584.84 178.602C586.908 178.659 588.971 178.832 591.02 179.122C611.27 182.022 630.26 195.282 642.34 214.832C651.477 209.785 661.807 207.298 672.24 207.632L673.74 207.692C703.38 209.182 726.33 231.792 724.9 258.102C724.16 271.612 716.97 284.212 705.15 292.682C702.765 295.004 699.857 296.719 696.67 297.682C692.123 299.815 687.315 301.341 682.37 302.222C683.28 315.852 672.47 330.542 655.57 338.062C648.367 341.316 640.533 342.935 632.63 342.802C619.95 342.472 609.71 337.082 605.01 328.302C600.055 332.608 594.427 336.071 588.35 338.552L677.79 429.562L28.95 375.992V304.832C18.9107 300.505 9.8901 294.121 2.47 286.092C1 284.492 -0.37 282.842 -1.68 281.172C-1.74733 285.975 -2.52924 290.74 -4 295.312V38.9022Z" fill="white"/>
</svg>
